<?xml version="1.0" encoding="iso-8859-1"?>
<!-- Generator: Adobe Illustrator 19.0.0, SVG Export Plug-In . SVG Version: 6.00 Build 0)  -->
<svg xmlns="http://www.w3.org/2000/svg" xmlns:xlink="http://www.w3.org/1999/xlink" version="1.1" id="Layer_1" x="0px" y="0px" viewBox="0 0 484.185 484.185" style="enable-background:new 0 0 484.185 484.185;" xml:space="preserve" width="512px" height="512px">
<g>
	<g>
		<g>
			<path d="M282.023,39.931h-12.465V0h-54.931v39.931h-12.465c-9.64,0-17.482,7.843-17.482,17.482v129.775     c0,9.64,7.843,17.482,17.482,17.482h12.465v279.515h54.931V204.67h12.465c9.64,0,17.483-7.843,17.483-17.482V57.413     C299.506,47.773,291.663,39.931,282.023,39.931z M229.627,15h24.931v24.931h-24.931V15z M254.558,469.185h-24.931V204.67h24.931     V469.185z M284.506,187.188c0,1.346-1.137,2.482-2.483,2.482h-79.861c-1.346,0-2.482-1.137-2.482-2.482V57.413     c0-1.346,1.137-2.482,2.482-2.482h79.861c1.346,0,2.483,1.137,2.483,2.482V187.188z" fill="#FFFFFF"/>
			<path d="M431.763,149.74h-12.465V0h-54.93v149.74h-12.465c-9.64,0-17.483,7.843-17.483,17.483v129.774     c0,9.64,7.843,17.483,17.483,17.483h12.465v169.705h54.93V314.48h12.465c9.64,0,17.483-7.843,17.483-17.483V167.223     C449.246,157.583,441.403,149.74,431.763,149.74z M379.367,15h24.93v134.74h-24.93V15z M404.298,469.185h-24.93V314.48h24.93     V469.185z M434.246,296.997c0,1.346-1.137,2.483-2.483,2.483h-79.861c-1.346,0-2.483-1.137-2.483-2.483V167.223     c0-1.346,1.137-2.483,2.483-2.483h79.861c1.346,0,2.483,1.137,2.483,2.483V296.997z" fill="#FFFFFF"/>
			<path d="M132.283,239.584h-12.465V0H64.887v239.584H52.422c-9.64,0-17.483,7.843-17.483,17.482V386.84     c0,9.64,7.843,17.483,17.483,17.483h12.465v79.861h54.931v-79.861h12.465c9.64,0,17.482-7.843,17.482-17.483V257.066     C149.766,247.427,141.923,239.584,132.283,239.584z M79.887,15h24.931v224.584H79.887V15z M104.818,469.185H79.887v-64.861     h24.931V469.185z M132.284,389.324H52.422c-1.346,0-2.483-1.137-2.483-2.483V257.066c0-1.346,1.137-2.482,2.483-2.482h79.861     c1.346,0,2.482,1.137,2.482,2.482v129.775h0.001C134.766,388.187,133.629,389.324,132.284,389.324z" fill="#FFFFFF"/>
			<rect x="366.876" y="224.61" width="49.914" height="15" fill="#FFFFFF"/>
			<rect x="366.876" y="184.679" width="49.914" height="15" fill="#FFFFFF"/>
			<rect x="366.876" y="264.541" width="49.914" height="15" fill="#FFFFFF"/>
			<rect x="217.136" y="114.801" width="49.914" height="15" fill="#FFFFFF"/>
			<rect x="217.136" y="74.87" width="49.914" height="15" fill="#FFFFFF"/>
			<rect x="217.136" y="154.731" width="49.914" height="15" fill="#FFFFFF"/>
			<rect x="67.396" y="314.454" width="49.913" height="15" fill="#FFFFFF"/>
			<rect x="67.396" y="274.523" width="49.913" height="15" fill="#FFFFFF"/>
			<rect x="67.396" y="354.384" width="49.913" height="15" fill="#FFFFFF"/>
		</g>
	</g>
</g>
<g>
</g>
<g>
</g>
<g>
</g>
<g>
</g>
<g>
</g>
<g>
</g>
<g>
</g>
<g>
</g>
<g>
</g>
<g>
</g>
<g>
</g>
<g>
</g>
<g>
</g>
<g>
</g>
<g>
</g>
</svg>
