<?xml version="1.0" encoding="iso-8859-1"?>
<!-- Generator: Adobe Illustrator 19.0.0, SVG Export Plug-In . SVG Version: 6.00 Build 0)  -->
<svg xmlns="http://www.w3.org/2000/svg" xmlns:xlink="http://www.w3.org/1999/xlink" version="1.1" id="Capa_1" x="0px" y="0px" viewBox="0 0 511.998 511.998" style="enable-background:new 0 0 511.998 511.998;" xml:space="preserve" width="512px" height="512px">
<g>
	<g>
		<path d="M508.457,422.452l-49.363-49.362c-2.279-2.279-5.311-3.534-8.534-3.534h-7.49l0.003-96.058c0-4.142-3.357-7.5-7.5-7.5    c-4.142,0-7.5,3.357-7.5,7.5c0,9.641-0.008,209.721-0.008,219.341l-43.5-43.5c0-12.135,0-295.734,0-309.83    c0-6.632-5.432-12.07-12.07-12.07c-14.24,0-297.894,0-309.83,0L19.162,83.937l219.34-0.009c4.143,0,7.5-3.358,7.5-7.5    c0-4.143-3.358-7.5-7.5-7.5l-96.057,0.004v-7.489c0-3.224-1.255-6.255-3.534-8.534L89.548,3.542    c-3.467-3.464-8.631-4.492-13.158-2.616c-4.523,1.874-7.445,6.248-7.445,11.145l-0.003,56.864l-56.863,0.002    c-10.741,0-16.111,13.018-8.527,20.605l49.363,49.363c2.279,2.279,5.311,3.534,8.534,3.534h7.489L68.93,406.311    c0,7.267,2.1,14.21,6.003,20.144l-38.116,38.116c-2.929,2.93-2.929,7.678,0,10.607c2.931,2.929,7.678,2.928,10.608,0    l38.115-38.115c5.935,3.905,12.879,6.006,20.147,6.006l263.873-0.01v7.49c0,3.224,1.255,6.255,3.534,8.534l49.362,49.362    c7.582,7.582,20.605,2.229,20.605-8.533l0.002-56.856l56.856-0.002c4.899,0,9.276-2.925,11.151-7.451    C512.948,431.078,511.92,425.915,508.457,422.452z M83.945,19.154l43.5,43.501v6.275l-43.503,0.002L83.945,19.154z     M142.447,142.438h216.505L142.447,358.943V142.438z M369.563,428.059l-263.873,0.01c-12.023,0-21.758-9.731-21.758-21.758    l0.009-263.873h43.506v230.048c0,6.642,5.44,12.069,12.069,12.069h230.048V428.059z M369.563,369.554H153.052l216.511-216.511    V369.554z M443.068,428.058c0.001-21.538,0-10.8,0.002-43.503l6.275,0.001l43.5,43.5L443.068,428.058z" fill="#FFFFFF"/>
	</g>
</g>
<g>
	<g>
		<path d="M475.187,36.81c-2.93-2.928-7.678-2.928-10.608,0l-38.116,38.116c-5.934-3.904-12.877-6.003-20.144-6.003l-132.816,0.003    c-4.143,0-7.5,3.358-7.5,7.5c0,4.143,3.359,7.5,7.5,7.5l132.816-0.004c12.008,0,21.758,9.736,21.758,21.758l-0.005,132.814    c0,4.142,3.357,7.5,7.5,7.5c4.142,0,7.5-3.357,7.5-7.5l0.005-132.814c0-7.268-2.101-14.213-6.006-20.148l38.115-38.115    C478.116,44.488,478.116,39.739,475.187,36.81z" fill="#FFFFFF"/>
	</g>
</g>
<g>
</g>
<g>
</g>
<g>
</g>
<g>
</g>
<g>
</g>
<g>
</g>
<g>
</g>
<g>
</g>
<g>
</g>
<g>
</g>
<g>
</g>
<g>
</g>
<g>
</g>
<g>
</g>
<g>
</g>
</svg>
