<svg xmlns="http://www.w3.org/2000/svg" xmlns:xlink="http://www.w3.org/1999/xlink" width="1200" height="1200" viewBox="0 0 1200 1200"><g><g transform="translate(600 600) scale(0.69 0.69) rotate(0) translate(-600 -600)" style="fill:#FFFFFF"><svg fill="#FFFFFF" xmlns="http://www.w3.org/2000/svg" xmlns:xlink="http://www.w3.org/1999/xlink" version="1.1" x="0px" y="0px" viewBox="0 0 499 235" style="enable-background:new 0 0 499 235;" xml:space="preserve"><path d="M487.8,209.6c-58.6,0-103.3-15.2-136.5-46.4c-28.3-26.6-43.1-60.3-55.1-87.3c-12.8-29.1-22.1-50.2-40.6-50.2  c-18.7,0-30.1,22.5-44.4,50.9c-13.6,27-30.5,60.5-60,86.9c-34.6,31-79.3,46.1-136.6,46.1v-6.8c125.1,0,162.8-74.6,190.3-129.2  C220.4,43.1,232.5,19,255.7,19c23.1,0,33.7,23.9,47,54.3c24.1,54.7,57.1,129.6,185.2,129.6V209.6z"></path><rect x="14.2" y="211.7" width="473.8" height="4"></rect><path d="M346.7,186.6v-21.3h-16.6v-18.6h-16.6v-30.4h-16.6V85.2h-16.6V57h-16.6V42.2h-20.6V57h-17.3v28.1h-16.6  v31.2h-16.6v30.4H176v18.6h-16.6v21.3h-16.7v22.7h16.7h3.9H176h4h12.6h4h12.6h4h12.6h4h13.3h3.3h13.3h4h12.6h4h12.6h4h12.6h4h12.6h4  h12.7h3.9h16.7v-22.7H346.7z M159.3,205.3h-12.6v-14.7h12.6V205.3z M163.4,205.3v-36H176v36H163.4z M180,205.3v-40h0v-14.6h12.6  v54.6H180z M209.2,205.3h-12.6v-58.6h0v-26.4h12.6V205.3z M213.2,205.3V89.2h12.6v116.2H213.2z M242.4,205.3h-12.6V85.2h0V61h12.6  V205.3z M247.1,205.3V46.2h12.6V57h0v148.3H247.1z M263.7,205.3V61h12.6v24.1h0v120.2H263.7z M292.9,205.3h-12.6V89.2h12.6V205.3z   M296.9,205.3v-85h12.6v26.4h0v58.6H296.9z M313.5,205.3v-54.6h12.6v14.6h0v40H313.5z M342.7,205.3h-12.6v-36h12.6V205.3z   M359.4,205.3h-12.6v-14.7h12.6V205.3z"></path></svg></g></g></svg>