<?xml version="1.0" encoding="iso-8859-1"?>
<svg xmlns="http://www.w3.org/2000/svg" xmlns:xlink="http://www.w3.org/1999/xlink" version="1.1" viewBox="0 0 8.64 8.64" enable-background="new 0 0 8.64 8.64" width="512px" height="512px">
  <g>
    <g>
      <path fill="#FFFFFF" d="m8.638,7.849c0.001-0.042-0.005-0.086-0.028-0.125l-4.08-7.067c0-0.001-0.002-0.002-0.002-0.003-0.013-0.021-0.03-0.039-0.05-0.057-0.006-0.005-0.011-0.01-0.018-0.015-0.005-0.004-0.009-0.01-0.015-0.013-0.012-0.007-0.025-0.008-0.038-0.013-0.012-0.004-0.023-0.009-0.035-0.012-0.016-0.003-0.032-0.003-0.048-0.003-0.016,0-0.031,0-0.047,0.003-0.013,0.003-0.024,0.008-0.036,0.012-0.013,0.005-0.027,0.006-0.039,0.013-0.006,0.004-0.009,0.009-0.014,0.013-0.007,0.005-0.012,0.01-0.018,0.016-0.02,0.017-0.037,0.035-0.05,0.056 0,0.001-0.002,0.001-0.002,0.003l-4.08,7.067c-0.006,0.009-0.006,0.019-0.01,0.029-0.007,0.014-0.011,0.03-0.016,0.046-0.001,0.008-0.004,0.015-0.004,0.022-0.002,0.013-0.008,0.025-0.008,0.038 0,0.132 0.108,0.24 0.24,0.24h8.16c0.112,0 0.201-0.078 0.228-0.181 0.004-0.013 0.006-0.025 0.008-0.038 0-0.007 0.004-0.013 0.004-0.021 1.77636e-15-0.004-0.002-0.006-0.002-0.01zm-7.986-.23l3.672-6.359 3.672,6.359h-7.344z"/>
    </g>
  </g>
</svg>
