<?xml version="1.0" encoding="iso-8859-1"?>
<!-- Generator: Adobe Illustrator 19.0.0, SVG Export Plug-In . SVG Version: 6.00 Build 0)  -->
<svg xmlns="http://www.w3.org/2000/svg" xmlns:xlink="http://www.w3.org/1999/xlink" version="1.1" id="Layer_1" x="0px" y="0px" viewBox="0 0 512 512" style="enable-background:new 0 0 512 512;" xml:space="preserve" width="512px" height="512px">
<g>
	<g>
		<g>
			<path d="M43.423,405.711h425.155c4.415,0,7.992-3.578,7.992-7.992V114.284c0-4.415-3.577-7.992-7.992-7.992H43.423     c-4.415,0-7.992,3.577-7.992,7.992v283.436C35.431,402.134,39.008,405.711,43.423,405.711z M389.725,248.009H334.85v-54.875     h54.875V248.009z M405.709,122.276h54.876v54.874h-54.876V122.276z M405.709,193.134h54.876v54.875h-54.876V193.134z      M405.709,263.993h54.876v54.876h-54.876V263.993z M405.709,334.853h54.876v54.874h-54.876V334.853z M389.725,122.276v54.874     H334.85v-54.874H389.725z M263.992,122.276h54.874v54.874h-54.874V122.276z M263.992,193.134h54.874v54.875h-54.874V193.134z      M263.992,263.993h54.874v54.876h-54.874V263.993z M263.992,334.853h62.866c4.414,0,7.992-3.577,7.992-7.992v-62.868h54.875     v125.735H263.992V334.853z M193.134,122.276h54.874v54.874h-54.874V122.276z M193.134,193.134h54.874v54.875h-54.874V193.134z      M193.134,263.993h54.874v54.876h-54.874V263.993z M122.276,122.276h54.874v54.874h-54.874V122.276z M122.276,193.134h54.874     v54.875h-54.874V193.134z M122.276,263.993h54.874v54.876h-54.874V263.993z M122.276,334.853h125.732v54.874H122.276V334.853z      M51.414,122.276h54.878v54.874H51.414V122.276z M51.414,193.134h54.878v54.875H51.414V193.134z M51.414,263.993h54.878v125.735     H51.414V263.993z" fill="#FFFFFF"/>
			<path d="M504.008,70.862H7.992C3.577,70.862,0,74.44,0,78.854v354.292c0,4.414,3.577,7.992,7.992,7.992h496.016     c4.415,0,7.992-3.578,7.992-7.992V78.854C512,74.44,508.423,70.862,504.008,70.862z M496.016,425.154H15.984V86.846h480.033     V425.154z" fill="#FFFFFF"/>
		</g>
	</g>
</g>
<g>
</g>
<g>
</g>
<g>
</g>
<g>
</g>
<g>
</g>
<g>
</g>
<g>
</g>
<g>
</g>
<g>
</g>
<g>
</g>
<g>
</g>
<g>
</g>
<g>
</g>
<g>
</g>
<g>
</g>
</svg>
